<?xml version="1.0" standalone="no"?><!DOCTYPE svg PUBLIC "-//W3C//DTD SVG 1.1//EN" "http://www.w3.org/Graphics/SVG/1.1/DTD/svg11.dtd"><svg t="1564996982267" class="icon" viewBox="0 0 1024 1024" version="1.1" xmlns="http://www.w3.org/2000/svg" p-id="2171" xmlns:xlink="http://www.w3.org/1999/xlink" width="200" height="200"><defs><style type="text/css"></style></defs><path d="M411 71.3c13.6 0 25 11.5 25 25v317.3c0 13.6-11.5 25-25 25H78c-13.6 0-25-11.5-25-25V96.3c0-13.6 11.5-25 25-25h333m0-50H78c-41.3 0-75 33.8-75 75v317.3c0 41.3 33.8 75 75 75h333c41.3 0 75-33.8 75-75V96.3c0-41.3-33.8-75-75-75z m0 567.4c13.6 0 25 11.5 25 25V931c0 13.6-11.5 25-25 25H78c-13.6 0-25-11.5-25-25V613.7c0-13.6 11.5-25 25-25h333m0-50.1H78c-41.3 0-75 33.8-75 75V931c0 41.3 33.8 75 75 75h333c41.3 0 75-33.8 75-75V613.7c0-41.3-33.8-75.1-75-75.1zM944 71.3c13.6 0 25 11.5 25 25v317.3c0 13.6-11.5 25-25 25H611c-13.6 0-25-11.5-25-25V96.3c0-13.6 11.5-25 25-25h333m0-50H611c-41.3 0-75 33.8-75 75v317.3c0 41.3 33.8 75 75 75h333c41.3 0 75-33.8 75-75V96.3c0-41.3-33.8-75-75-75zM631.7 605.9c-13.8 0-25 11.3-25 25v50c0 13.8 11.3 25 25 25 13.8 0 25-11.3 25-25v-50c0.1-13.8-11.2-25-25-25z m147 0c-13.8 0-25 11.3-25 25v147.5c0 13.8 11.3 25 25 25 13.8 0 25-11.3 25-25V630.9c0-13.8-11.3-25-25-25z m144.6 0c-13.8 0-25 11.3-25 25v82.4c0 13.8 11.3 25 25 25 13.8 0 25-11.3 25-25v-82.4c0-13.8-11.3-25-25-25z m0 198.3c-13.8 0-25 11.3-25 25v114.3c0 13.8 11.3 25 25 25 13.8 0 25-11.3 25-25V829.2c0-13.7-11.3-25-25-25z m-291.6-31.9c-13.8 0-25 11.3-25 25v146.3c0 13.8 11.3 25 25 25 13.8 0 25-11.3 25-25V797.3c0.1-13.7-11.2-25-25-25z m147 66.6c-13.8 0-25 11.3-25 25v79.7c0 13.8 11.3 25 25 25s25-11.3 25-25v-79.7c0-13.8-11.3-25-25-25z" fill="#999999" p-id="2172"></path></svg>