<?xml version="1.0" standalone="no"?><!DOCTYPE svg PUBLIC "-//W3C//DTD SVG 1.1//EN" "http://www.w3.org/Graphics/SVG/1.1/DTD/svg11.dtd"><svg t="1563777552729" class="icon" viewBox="0 0 1024 1024" version="1.1" xmlns="http://www.w3.org/2000/svg" p-id="2533" xmlns:xlink="http://www.w3.org/1999/xlink" width="500" height="500"><defs><style type="text/css"></style></defs><path d="M671.8 206.9c0-15.2-12.5-27.6-28-27.6H259.2c-15.5 0.5-27.6 13.2-27.1 28.4 0.5 14.6 12.3 26.3 27.1 26.7h384.6c15.4 0 28-12.3 28-27.5z m-412.6 68.8c-15.5 0.5-27.6 13.2-27.1 28.4 0.5 14.6 12.3 26.3 27.1 26.7h243.1c15.5 0 28-12.3 28-27.6 0-15.2-12.5-27.6-28-27.6H259.2z m488.1 134.6l-88.8 87.4-88.8-87.4c-11.1-10.6-28.9-10.3-39.6 0.7-10.5 10.7-10.5 27.6 0 38.3l71.7 70.7h-38c-15.5 0-28 12.3-28 27.6 0 15.2 12.5 27.6 28 27.6h66.6v22.2H564c-15.5 0-28 12.3-28 27.6 0 15.2 12.5 27.6 28 27.6h66.6v48c0 15.2 12.5 27.6 28 27.6s28-12.3 28-27.6v-48h66.6c15.5 0 28-12.3 28-27.6 0-15.2-12.5-27.6-28-27.6h-66.6v-22.2h66.6c15.5 0 28-12.3 28-27.6 0-15.2-12.5-27.6-28-27.6h-38l71.7-70.7c10.9-10.8 10.9-28.2 0-39-11-10.7-28.7-10.7-39.6 0z m175.1-271.2c0-41.4-34.2-75.1-76.3-75.1l-668.5 0.1c-42.1 0-76.3 33.7-76.3 75.1v793.3c0 15.2 12.5 27.6 28 27.6h3.8c7.1 0 13.9-2.7 19.1-7.4l74.1-68.1 74.1 68.1c5.2 4.8 12 7.4 19.1 7.4h8.1c7.1 0 13.9-2.7 19.1-7.4l74.1-68.2 74.1 68.2c5.2 4.8 12 7.4 19.1 7.4h8.1c7.1 0 13.9-2.7 19.1-7.4l74.1-68.1 74.1 68.1c5.2 4.8 12 7.4 19.1 7.4 7.5 0 15-2.9 20.5-8.8 10.6-11.1 10-28.5-1.3-38.9l-93.2-85.7c-10.8-9.9-27.5-9.9-38.2 0l-78.2 71.9-78.1-72c-10.8-9.9-27.5-9.9-38.2 0l-78.2 71.9-78.2-71.9c-10.8-9.9-27.4-9.9-38.2 0l-49.9 45.9V139.1c0-11 9.1-19.9 20.3-19.9l668.5-0.1c11.2 0 20.3 8.9 20.3 19.9v728.5l0.3 57.5c0.1 15.2 12.6 27.4 28 27.4h0.1c15.5-0.1 28-12.4 27.9-27.7l-0.3-785.6z" p-id="2534" fill="#ffffff"></path></svg>