<?xml version="1.0" standalone="no"?><!DOCTYPE svg PUBLIC "-//W3C//DTD SVG 1.1//EN" "http://www.w3.org/Graphics/SVG/1.1/DTD/svg11.dtd"><svg t="1563416984472" class="icon" viewBox="0 0 1024 1024" version="1.1" xmlns="http://www.w3.org/2000/svg" p-id="13878" xmlns:xlink="http://www.w3.org/1999/xlink" width="500" height="500"><defs><style type="text/css"></style></defs><path d="M965.376 309.703111 659.256889 309.703111 659.256889 49.777778c0-12.572444-10.183111-22.755556-22.755556-22.755556L65.820444 27.022222c-12.572444 0-22.755556 10.183111-22.755556 22.755556l0 919.125333c0 12.544 10.183111 22.755556 22.755556 22.755556l570.680889 0 328.903111 0c12.544 0 22.755556-10.183111 22.755556-22.755556L988.16 332.458667C988.131556 319.886222 977.948444 309.703111 965.376 309.703111zM88.576 72.533333l525.169778 0 0 259.925333 0 613.688889L88.576 946.147556 88.576 72.533333zM942.648889 946.147556l-283.392 0L659.256889 355.185778l283.392 0L942.648889 946.147556z" p-id="13879" fill="#ffffff"></path><path d="M309.504 246.670222 186.624 246.670222c-12.572444 0-22.755556 10.183111-22.755556 22.755556l0 82.574222c0 12.572444 10.183111 22.755556 22.755556 22.755556l122.908444 0c12.572444 0 22.755556-10.183111 22.755556-22.755556L332.288 269.425778C332.259556 256.853333 322.076444 246.670222 309.504 246.670222zM286.776889 329.272889 209.351111 329.272889l0-37.091556 77.397333 0L286.748444 329.272889z" p-id="13880" fill="#ffffff"></path><path d="M515.726222 246.670222l-122.88 0c-12.572444 0-22.755556 10.183111-22.755556 22.755556l0 82.574222c0 12.572444 10.183111 22.755556 22.755556 22.755556l122.88 0c12.544 0 22.755556-10.183111 22.755556-22.755556L538.481778 269.425778C538.481778 256.853333 528.270222 246.670222 515.726222 246.670222zM492.970667 329.272889 415.573333 329.272889l0-37.091556 77.397333 0L492.970667 329.272889z" p-id="13881" fill="#ffffff"></path><path d="M309.504 456.220444l-122.88 0c-12.572444 0-22.755556 10.183111-22.755556 22.755556l0 82.545778c0 12.544 10.183111 22.755556 22.755556 22.755556l122.88 0c12.572444 0 22.755556-10.183111 22.755556-22.755556l0-82.545778C332.259556 466.403556 322.076444 456.220444 309.504 456.220444zM286.748444 538.766222 209.351111 538.766222l0-37.063111 77.397333 0L286.748444 538.766222z" p-id="13882" fill="#ffffff"></path><path d="M515.726222 456.220444l-122.88 0c-12.572444 0-22.755556 10.183111-22.755556 22.755556l0 82.545778c0 12.544 10.183111 22.755556 22.755556 22.755556l122.88 0c12.544 0 22.755556-10.183111 22.755556-22.755556l0-82.545778C538.481778 466.403556 528.270222 456.220444 515.726222 456.220444zM492.970667 538.766222 415.573333 538.766222l0-37.063111 77.397333 0L492.970667 538.766222z" p-id="13883" fill="#ffffff"></path><path d="M309.504 665.742222l-122.88 0c-12.572444 0-22.755556 10.183111-22.755556 22.755556l0 82.545778c0 12.544 10.183111 22.755556 22.755556 22.755556l122.88 0c12.572444 0 22.755556-10.183111 22.755556-22.755556l0-82.545778C332.259556 675.953778 322.076444 665.742222 309.504 665.742222zM286.748444 748.316444 209.351111 748.316444l0-37.063111 77.397333 0L286.748444 748.316444z" p-id="13884" fill="#ffffff"></path><path d="M515.726222 665.742222l-122.88 0c-12.572444 0-22.755556 10.183111-22.755556 22.755556l0 82.545778c0 12.544 10.183111 22.755556 22.755556 22.755556l122.88 0c12.544 0 22.755556-10.183111 22.755556-22.755556l0-82.545778C538.481778 675.953778 528.270222 665.742222 515.726222 665.742222zM492.970667 748.316444 415.573333 748.316444l0-37.063111 77.397333 0L492.970667 748.316444z" p-id="13885" fill="#ffffff"></path><path d="M739.498667 564.48l122.88 0c12.544 0 22.755556-10.183111 22.755556-22.755556l0-82.545778c0-12.572444-10.183111-22.755556-22.755556-22.755556l-122.88 0c-12.544 0-22.755556 10.183111-22.755556 22.755556l0 82.545778C716.743111 554.268444 726.954667 564.48 739.498667 564.48zM762.254222 481.905778l77.397333 0 0 37.063111-77.397333 0L762.254222 481.905778z" p-id="13886" fill="#ffffff"></path><path d="M739.498667 793.799111l122.88 0c12.544 0 22.755556-10.183111 22.755556-22.755556l0-82.545778c0-12.544-10.183111-22.755556-22.755556-22.755556l-122.88 0c-12.544 0-22.755556 10.183111-22.755556 22.755556l0 82.545778C716.743111 783.616 726.954667 793.799111 739.498667 793.799111zM762.254222 711.253333l77.397333 0 0 37.063111-77.397333 0L762.254222 711.253333z" p-id="13887" fill="#ffffff"></path></svg>