<?xml version="1.0" standalone="no"?><!DOCTYPE svg PUBLIC "-//W3C//DTD SVG 1.1//EN" "http://www.w3.org/Graphics/SVG/1.1/DTD/svg11.dtd"><svg t="1563415999807" class="icon" viewBox="0 0 1024 1024" version="1.1" xmlns="http://www.w3.org/2000/svg" p-id="5358" xmlns:xlink="http://www.w3.org/1999/xlink" width="500" height="500"><defs><style type="text/css"></style></defs><path d="M993.28 985.6l-10.24 10.24c-10.24 10.24-33.28 10.24-43.52 0l-74.24-66.56c-28.16 17.92-58.88 28.16-92.16 28.16-97.28 0-174.08-79.36-174.08-174.08 0-97.28 76.8-174.08 174.08-174.08s174.08 79.36 174.08 174.08c0 35.84-10.24 66.56-28.16 94.72l74.24 66.56c12.8 7.68 10.24 28.16 0 40.96z m-220.16-302.08c-53.76 0-97.28 43.52-97.28 99.84 0 53.76 43.52 99.84 97.28 99.84s97.28-43.52 97.28-99.84-43.52-99.84-97.28-99.84z m104.96-135.68V115.2H140.8v716.8h378.88c0 38.4 30.72 69.12 43.52 89.6H112.64C79.36 921.6 51.2 893.44 51.2 857.6v-768C51.2 53.76 79.36 25.6 112.64 25.6h791.04c33.28 0 61.44 28.16 61.44 64v522.24c-20.48-20.48-56.32-51.2-87.04-64z m-389.12-194.56c-23.04-40.96-48.64-71.68-81.92-94.72L450.56 230.4c40.96 28.16 79.36 87.04 112.64 171.52 25.6 64 66.56 125.44 117.76 186.88l-48.64 33.28c-53.76-76.8-92.16-145.92-115.2-199.68l-2.56-5.12c-33.28 120.32-102.4 212.48-202.24 279.04l-33.28-46.08c107.52-71.68 176.64-168.96 209.92-296.96z" fill="#ffffff" p-id="5359"></path></svg>