<svg t="1569209307102" class="icon" viewBox="0 0 1312 1024" version="1.1" xmlns="http://www.w3.org/2000/svg" p-id="1406" width="200" height="200"><path d="M164 736.8h164v81.856H164v-81.856zM1188.992 0H287.04a123.072 123.072 0 0 0-123.008 122.848v81.824H123.008A123.072 123.072 0 0 0 0 327.488v573.088a123.04 123.04 0 0 0 123.008 122.784H984a123.072 123.072 0 0 0 123.008-122.784h81.984A123.072 123.072 0 0 0 1312 777.696V122.88A123.072 123.072 0 0 0 1188.992 0z m-164 900.576c0 22.528-18.4 40.896-40.96 40.896H122.976a40.96 40.96 0 0 1-41.024-40.896V532.16h943.04v368.416z m0-450.304H81.984v-122.784c0-22.624 18.4-40.928 41.024-40.928H984c22.592 0 40.992 18.304 40.992 40.96v122.752z m205.024 327.456c0 22.624-18.432 40.928-41.024 40.928h-81.984V327.488a123.072 123.072 0 0 0-123.008-122.816H245.984V122.848c0-22.624 18.4-40.96 41.024-40.96h901.984c22.592 0 41.024 18.336 41.024 40.96v654.88z" p-id="1407"></path></svg>