<?xml version="1.0" standalone="no"?><!DOCTYPE svg PUBLIC "-//W3C//DTD SVG 1.1//EN" "http://www.w3.org/Graphics/SVG/1.1/DTD/svg11.dtd"><svg t="1563416891169" class="icon" viewBox="0 0 1168 1024" version="1.1" xmlns="http://www.w3.org/2000/svg" p-id="13080" xmlns:xlink="http://www.w3.org/1999/xlink" width="570.3125" height="500"><defs><style type="text/css"></style></defs><path d="M580.550315 980.505988c-239.216986 0-400.901195-181.540164-415.08402-329.041547 0-0.945522 2.836565-1.891043 7.564173-2.836565l118.190211 0L138.046166 533.274231 0 649.573398l116.299167 0c6.618652 211.796858 211.796858 374.426588 464.251148 374.426588 256.236377 0 464.251148-175.867034 464.251148-392.3915l-50.112649 0C991.852248 779.109869 830.16804 980.505988 580.550315 980.505988zM587.168967 42.548476c239.216986 0 400.901195 181.540164 415.08402 329.041547 0 0.945522-2.836565 1.891043-7.564173 2.836565L877.444124 374.426588l152.228991 116.299167 138.046166-116.299167-116.299167 0C1044.801463 162.62973 839.623257 0 587.168967 0 330.93259 0 122.917819 175.867034 122.917819 392.3915l50.112649 0C175.867034 244.890117 337.551242 42.548476 587.168967 42.548476z" p-id="13081" fill="#ffffff"></path><path d="M757.36287 277.037854l-113.462602 196.668511 80.369343 0 0 58.622345L625.935356 532.328709l0 44.439519 99.279777 0 0 59.567866L625.935356 636.336094 625.935356 718.596481l-89.82456 0 0-82.260387L433.048932 636.336094l0-59.567866 103.061864 0 0-44.439519L433.048932 532.328709l0-58.622345 82.260387 0L405.628803 277.037854 501.126493 277.037854c43.493998 90.770082 70.914126 150.337948 82.260387 179.64912L586.223445 456.686974c1.891043-3.782087 2.836565-9.455217 5.67313-16.073869 3.782087-10.400739 17.01939-39.711911 40.657432-88.879038l34.984302-74.696213L757.36287 277.037854z" p-id="13082" fill="#ffffff"></path></svg>