<?xml version="1.0" standalone="no"?><!DOCTYPE svg PUBLIC "-//W3C//DTD SVG 1.1//EN" "http://www.w3.org/Graphics/SVG/1.1/DTD/svg11.dtd"><svg t="1563416442451" class="icon" viewBox="0 0 1024 1024" version="1.1" xmlns="http://www.w3.org/2000/svg" p-id="9552" xmlns:xlink="http://www.w3.org/1999/xlink" width="500" height="500"><defs><style type="text/css"></style></defs><path d="M434.76 830.16H170.23a17.3 17.3 0 0 1-17.07-17.07V210.43a17.3 17.3 0 0 1 17.07-17.07h477.86a17.3 17.3 0 0 1 17.07 17.07v174a25.6 25.6 0 1 0 51.2 0v-174a68.34 68.34 0 0 0-68.27-68.27H170.23A68.34 68.34 0 0 0 102 210.43v602.66a68.34 68.34 0 0 0 68.27 68.27h264.49a25.6 25.6 0 0 0 0-51.2z m0 0" p-id="9553" fill="#ffffff"></path><path d="M816.4 726.21a186.45 186.45 0 0 0-55.82-38.51 116.53 116.53 0 1 0-153.07 0.47 186.84 186.84 0 0 0-109.4 169.88 23.31 23.31 0 1 0 46.61 0c0-77.1 62.73-139.83 139.83-139.83S824.39 781 824.39 858.05a23.31 23.31 0 1 0 46.61 0 185.2 185.2 0 0 0-54.6-131.84z m-132.62-56.16a69.92 69.92 0 1 1 69.92-69.92 69.92 69.92 0 0 1-69.92 69.92zM229.11 307a25.6 25.6 0 0 0 0 51.2h358.4a25.6 25.6 0 0 0 0-51.2z m256 153.6h-256a25.6 25.6 0 0 0 0 51.2h256a25.6 25.6 0 0 0 0-51.2z m-102.4 204.8a25.6 25.6 0 1 0 0-51.2h-153.6a25.6 25.6 0 1 0 0 51.2z m0 0" p-id="9554" fill="#ffffff"></path></svg>