<?xml version="1.0" standalone="no"?><!DOCTYPE svg PUBLIC "-//W3C//DTD SVG 1.1//EN" "http://www.w3.org/Graphics/SVG/1.1/DTD/svg11.dtd"><svg t="1563417177641" class="icon" viewBox="0 0 1024 1024" version="1.1" xmlns="http://www.w3.org/2000/svg" p-id="15691" xmlns:xlink="http://www.w3.org/1999/xlink" width="500" height="500"><defs><style type="text/css"></style></defs><path d="M935.822222 267.377778L645.688889 11.377778H139.377778v995.555555h796.444444v-739.555555zM645.688889 71.111111l224.711111 199.111111h-224.711111v-199.111111zM182.044444 967.111111V51.2h423.822223v258.844444h287.288889v654.222223h-711.111112v2.844444z" fill="#ffffff" p-id="15692"></path><path d="M537.6 352.711111c-108.088889 0-199.111111 79.644444-213.333333 187.733333h31.288889c14.222222-99.555556 108.088889-170.666667 210.488888-156.444444 68.266667 11.377778 125.155556 56.888889 147.911112 122.311111l-31.288889-17.066667c-8.533333-5.688889-17.066667-2.844444-19.911111 5.688889-5.688889 8.533333-2.844444 17.066667 5.688888 19.911111l65.422223 34.133334c8.533333 5.688889 17.066667 2.844444 22.755555-5.688889l34.133334-65.422222c5.688889-8.533333 2.844444-17.066667-5.688889-19.911111-8.533333-5.688889-17.066667-2.844444-19.911111 5.688888l-17.066667 31.288889c-34.133333-82.488889-116.622222-142.222222-210.488889-142.222222zM537.6 753.777778c-79.644444 0-147.911111-48.355556-173.511111-122.311111l34.133333 17.066666c8.533333 2.844444 17.066667 0 19.911111-8.533333 2.844444-5.688889 0-14.222222-5.688889-19.911111l-65.422222-34.133333c-8.533333-5.688889-17.066667-2.844444-22.755555 5.688888l-34.133334 65.422223c-2.844444 8.533333 0 17.066667 8.533334 19.911111 5.688889 2.844444 14.222222 0 19.911111-5.688889l17.066666-31.288889c39.822222 113.777778 162.133333 170.666667 275.911112 130.844444 76.8-25.6 130.844444-93.866667 142.222222-176.355555h-31.288889c-17.066667 93.866667-93.866667 159.288889-184.888889 159.288889z" fill="#ffffff" p-id="15693"></path></svg>