<?xml version="1.0" standalone="no"?><!DOCTYPE svg PUBLIC "-//W3C//DTD SVG 1.1//EN" "http://www.w3.org/Graphics/SVG/1.1/DTD/svg11.dtd"><svg t="1563417121801" class="icon" viewBox="0 0 1024 1024" version="1.1" xmlns="http://www.w3.org/2000/svg" p-id="15476" xmlns:xlink="http://www.w3.org/1999/xlink" width="500" height="500"><defs><style type="text/css"></style></defs><path d="M179.159938 364.361475c5.799076-140.638087 130.654712-258.464633 243.695255-284.118919 90.639347-20.568455 156.554592-19.391652 228.815359 23.849174 46.139853 27.624151 90.667999 63.179948 122.694413 106.831121 7.877411 10.694573 48.329728-14.359033 60.390415-19.445888-31.698956 68.950372-94.468558 257.506818-94.468558 257.506818l-274.163173-82.462107c0 0 88.61627-23.194258 99.965759-67.118654 13.019525-50.325176-68.403926-108.500133-139.242298-99.337449C340.200704 211.279984 257.164522 284.333814 179.159938 364.361475 179.159938 364.361475 301.363164 195.963137 179.159938 364.361475z" p-id="15477" fill="#ffffff"></path><path d="M807.732933 293.961078c122.585943 69.196988 170.778548 233.929844 142.223189 346.287841-22.918989 90.066295-53.9354 148.239206-125.320217 192.903451-45.593408 28.526707-97.505731 52.049446-150.975527 60.71992-13.07376 2.131547-9.162684 49.558719-10.120498 62.632479-46.989197-59.59633-186.368618-201.246467-186.368618-201.246467l198.129476-206.689433c0 0-19.637246 89.463568 14.276145 119.577423 38.949081 34.434254 127.782292-11.567453 151.823847-78.82323C870.831017 507.022639 843.535347 399.863037 807.732933 293.961078 807.732933 293.961078 902.148279 479.426117 807.732933 293.961078z" p-id="15478" fill="#ffffff"></path><path d="M557.091476 876.011504c-122.31272 69.717851-288.412712 26.447349-370.163621-55.659671-65.532529-65.942875-99.55746-122.394584-101.225449-206.578915-1.066285-53.798277 5.361101-110.388133 25.354458-160.713308 4.895497-12.334933-37.798884-33.340339-48.520063-40.86164 75.269287-9.736758 268.36512-56.616462 268.36512-56.616462l75.652004 276.105409c0 0-66.681702-62.769602-109.949134-49.121767-49.504484 15.72617-55.632041 115.584482-10.256598 170.750919C341.868693 820.817438 447.853539 852.380294 557.091476 876.011504 557.091476 876.011504 349.499487 861.842807 557.091476 876.011504z" p-id="15479" fill="#ffffff"></path></svg>