<?xml version="1.0" standalone="no"?><!DOCTYPE svg PUBLIC "-//W3C//DTD SVG 1.1//EN" "http://www.w3.org/Graphics/SVG/1.1/DTD/svg11.dtd"><svg t="1563777530446" class="icon" viewBox="0 0 1024 1024" version="1.1" xmlns="http://www.w3.org/2000/svg" p-id="1794" xmlns:xlink="http://www.w3.org/1999/xlink" width="500" height="500"><defs><style type="text/css"></style></defs><path d="M922.070993 143.960004c-12.286771-11.160484-28.464354-17.30387-45.256274-17.30387-1.535846 0-2.969303 0-4.60754 0.10239-0.819118 0.10239-11.570043 0.716728-28.157184 0.716728-27.645235 0-81.50225-1.843016-132.492351-14.027397-65.836616-15.768023-141.809819-88.259974-164.028397-102.59454C536.266373 3.583642 523.365263 0 510.464154 0c-12.90111 0-25.59744 3.583642-36.757925 10.750925-2.764524 1.843016-82.423758 84.266773-160.239976 102.69693-51.092491 12.184382-105.871013 14.027397-133.516248 14.027397-16.587141 0-27.338066-0.614339-28.361964-0.716728-1.433457-0.10239-2.866913-0.10239-4.40276-0.10239-16.689531 0-33.071893 6.143386-45.358664 17.30387-13.413059 11.979602-20.989901 29.078692-20.989901 46.792121v160.239976c0 592.734327 400.855914 668.912309 417.852615 671.984001 3.890811 0.614339 7.884012 1.023898 11.774823 1.023898s7.884012-0.307169 11.774822-1.023898c16.9967-2.969303 420.924308-79.352065 420.924308-671.984001V190.752125c0-17.815818-7.781622-34.812519-21.092291-46.792121zM773.913009 373.108289L495.924808 642.086191c-1.740626 2.866913-3.890811 5.733827-6.450555 8.191181-8.191181 7.884012-18.839716 11.774823-29.590641 11.467653-10.750925 0.10239-21.50185-3.583642-29.590641-11.467653-2.559744-2.457354-4.709929-5.324268-6.450555-8.191181L275.172483 498.330967c-15.870413-15.358464-15.870413-40.034397 0-55.392861s41.467853-15.358464 57.235876 0L459.678832 566.215378l256.793521-248.39756c15.870413-15.358464 41.467853-15.358464 57.235876 0 15.870413 15.256074 15.870413 39.932007 0.20478 55.290471z" fill="#ffffff" p-id="1795"></path></svg>