<?xml version="1.0" standalone="no"?><!DOCTYPE svg PUBLIC "-//W3C//DTD SVG 1.1//EN" "http://www.w3.org/Graphics/SVG/1.1/DTD/svg11.dtd"><svg t="1563417281277" class="icon" viewBox="0 0 1024 1024" version="1.1" xmlns="http://www.w3.org/2000/svg" p-id="16794" xmlns:xlink="http://www.w3.org/1999/xlink" width="500" height="500"><defs><style type="text/css"></style></defs><path d="M943.519 494.733c4.029 10.03 6.378 20.902 6.378 32.353v405.868c0 48.038-38.935 86.972-86.973 86.972H167.151c-48.038 0-86.973-38.934-86.973-86.972V527.086c0-11.48 2.349-22.352 6.378-32.353-36.992-10.002-64.359-43.429-64.359-83.609V266.171c0-48.038 38.935-86.973 86.973-86.973h335.508L320.482 55.004c-11.423-11.423-11.423-29.918 0-41.341 11.452-11.452 29.947-11.452 41.399 0L506.66 158.442c5.48 5.48 8.176 12.64 8.378 19.83 0.232-7.19 2.898-14.321 8.378-19.83L668.195 13.663c11.452-11.452 29.947-11.452 41.399 0 11.423 11.423 11.423 29.918 0 41.341L585.397 179.2h335.508c48.038 0 86.973 38.933 86.973 86.971v144.953c0 40.18-27.339 73.607-64.359 83.609zM833.934 961.945c32.006 0 57.981-25.977 57.981-57.981V556.076c0-32.004-25.975-57.981-57.981-57.981H544.027v463.851h289.907v-0.001zM138.16 903.964c0 32.005 25.975 57.981 57.981 57.981h289.907v-463.85H196.141c-32.006 0-57.981 25.977-57.981 57.981v347.888z m0-666.784c-32.004 0-57.981 25.977-57.981 57.981v86.973c0 32.004 25.977 57.98 57.981 57.98h347.888V237.18H138.16z m811.737 57.981c0-32.004-25.975-57.981-57.981-57.981H544.027v202.935h347.888c32.006 0 57.981-25.977 57.981-57.981v-86.973h0.001z" p-id="16795" fill="#ffffff"></path></svg>