<?xml version="1.0" standalone="no"?><!DOCTYPE svg PUBLIC "-//W3C//DTD SVG 1.1//EN" "http://www.w3.org/Graphics/SVG/1.1/DTD/svg11.dtd"><svg t="1563414948602" class="icon" viewBox="0 0 1024 1024" version="1.1" xmlns="http://www.w3.org/2000/svg" p-id="840" xmlns:xlink="http://www.w3.org/1999/xlink" width="500" height="500"><defs><style type="text/css"></style></defs><path d="M522.91 482.715c-112.674 0-204.333-91.659-204.333-204.333 0-112.673 91.66-204.333 204.333-204.333s204.33 91.66 204.33 204.333c0 112.675-91.657 204.333-204.33 204.333z m0-371.723c-92.301 0-167.392 75.09-167.392 167.391 0 92.301 75.091 167.391 167.392 167.391 92.297 0 167.39-75.09 167.39-167.391 0-92.3-75.093-167.391-167.39-167.391zM152.096 891.758C169.024 698.79 328.76 546.966 522.91 546.966c194.14 0 353.871 151.824 370.801 344.792h37.15c-17.047-213.37-193.438-381.735-407.951-381.735-214.527 0-390.918 168.365-407.972 381.735h37.158z" p-id="841" fill="#ffffff"></path></svg>