<svg t="1569208353968" class="icon" viewBox="0 0 1024 1024" version="1.1" xmlns="http://www.w3.org/2000/svg" p-id="642" width="200" height="200"><path d="M902.144 220.672c21.504 0 39.424 7.168 53.248 20.992 13.824 13.824 20.992 31.744 20.992 53.76V424.96c0 12.288-6.144 18.432-18.432 18.432h-18.432v471.04c0 21.504-7.168 39.424-20.992 53.248-13.824 13.824-31.744 20.992-53.248 20.992H159.232c-21.504 0-39.424-7.168-53.248-20.992-13.824-13.824-20.992-31.744-20.992-53.76v-471.04H66.56c-12.288 0-18.432-6.144-18.432-18.432V294.912c0-22.016 7.168-39.424 20.992-53.248 13.824-13.824 31.744-20.992 53.248-20.992h65.024c-18.432-21.504-27.648-46.592-27.648-74.24 0-31.232 10.752-57.344 32.256-78.848C214.016 46.08 240.128 35.328 271.36 35.328S328.704 46.08 350.208 67.584L512 213.504l162.304-146.432c22.016-21.504 48.128-32.256 78.848-32.256 31.232 0 57.344 10.752 78.848 32.256 21.504 22.016 32.256 48.128 32.256 78.848 0 28.16-9.216 52.736-28.16 74.24l66.048 0.512zM121.856 258.048c-24.576 0-36.864 12.288-36.864 36.864v111.616h408.576v-148.48H121.856z m0 656.384c0 24.576 12.288 36.864 36.864 36.864h334.336V443.392H121.856v471.04zM324.096 93.184c-13.824-13.824-31.744-20.992-53.76-20.992-21.504 0-39.424 7.168-53.248 20.992-13.824 13.824-20.992 31.744-20.992 53.76 0 21.504 7.168 39.424 20.992 53.248 13.824 13.824 31.744 20.992 53.248 20.992h192.512L324.096 95.232v-2.048z m615.424 201.728c0-24.576-12.288-36.864-36.864-36.864h-371.712v148.48h408.576V294.912z m-37.376 148.48h-371.712v508.416h334.336c24.576 0 36.864-12.288 36.864-36.864l0.512-471.552z m-148.48-222.72c21.504 0 39.424-7.168 53.248-20.992 13.824-13.824 20.992-31.744 20.992-53.248s-7.168-39.424-20.992-53.248c-13.824-13.824-31.744-20.992-53.248-20.992s-39.424 7.168-53.248 20.992v2.56l-139.264 125.44 192.512-0.512z m0 0" fill="" p-id="643"></path></svg>