<?xml version="1.0" standalone="no"?><!DOCTYPE svg PUBLIC "-//W3C//DTD SVG 1.1//EN" "http://www.w3.org/Graphics/SVG/1.1/DTD/svg11.dtd"><svg t="1563501627264" class="icon" viewBox="0 0 1024 1024" version="1.1" xmlns="http://www.w3.org/2000/svg" p-id="2647" xmlns:xlink="http://www.w3.org/1999/xlink" width="500" height="500"><defs><style type="text/css"></style></defs><path d="M508.093 998.816c-263.584 0-477.709-214.124-477.709-477.709s214.124-477.709 477.709-477.709 477.709 214.124 477.709 477.709-214.124 477.709-477.709 477.709zM508.093 49.261c-260.331 0-471.853 211.521-471.853 471.853s211.521 471.853 471.853 471.853 471.853-211.521 471.853-471.853-211.521-471.853-471.853-471.853z" fill="#ffffff" p-id="2648"></path><path d="M508.093 950.658c-236.899 0-428.898-192.647-428.898-428.898s192.647-428.898 428.898-428.898 428.898 192.647 428.898 428.898-191.993 428.898-428.898 428.898zM508.093 109.138c-227.138 0-412.623 184.835-412.623 412.623s184.835 412.623 412.623 412.623 412.623-184.835 412.623-412.623-185.486-412.623-412.623-412.623z" fill="#ffffff" p-id="2649"></path><path d="M508.093 532.174c-98.926 0-178.979-54.668-178.979-121.056s80.053-121.056 178.979-121.056 178.979 54.668 178.979 121.056c0 7.809-6.509 13.669-13.669 13.669-7.809 0-13.669-6.509-13.669-13.669 0-50.764-68.987-93.067-150.991-93.067s-150.991 42.956-150.991 93.067 68.987 93.067 150.991 93.067c7.809 0 13.669 6.509 13.669 13.669s-6.509 14.319-14.319 14.319z" fill="#ffffff" p-id="2650"></path><path d="M508.093 746.947c-98.926 0-178.979-54.668-178.979-121.056 0-7.809 6.509-13.669 13.669-13.669 7.809 0 13.669 6.509 13.669 13.669 0 50.764 68.987 93.067 150.991 93.067s150.991-42.956 150.991-93.067-68.987-93.067-150.991-93.067c-7.809 0-13.669-6.509-13.669-13.669s6.509-13.669 13.669-13.669c98.926 0 178.979 54.668 178.979 121.056s-79.401 120.404-178.327 120.404z" fill="#ffffff" p-id="2651"></path><path d="M508.093 778.841c-7.809 0-13.669-6.509-13.669-13.669v-486.167c0-7.809 6.509-13.669 13.669-13.669s13.669 6.509 13.669 13.669v486.167c0.65 7.161-5.858 13.669-13.669 13.669zM683.817 305.037c-5.206 3.254-7.161 11.066-3.254 16.269 10.412 14.319 28.637 41.004 31.89 68.987 3.254 37.098 20.174-27.984 16.269-93.718-0.65-8.463-9.761-13.669-17.571-9.115l-27.335 17.571z" fill="#ffffff" p-id="2652"></path><path d="M703.344 308.942c-0.65 0-1.303 0-1.303-0.65-0.65-0.65-1.303-1.303-2.604-3.254-31.89-47.51-84.606-75.498-148.388-77.446-1.303 0-2.604-1.303-2.604-2.604s1.303-2.604 2.604-2.604c65.734 2.604 119.751 30.59 152.293 80.053 0.65 0.65 1.303 1.303 1.303 1.952 1.303 0.65 1.303 2.604 0.65 3.254 0 0.65-0.65 1.303-1.952 1.303zM333.673 734.583c5.206-3.254 7.161-11.066 3.254-16.269-10.412-14.319-28.637-41.004-31.89-68.987-3.254-37.098-20.174 27.984-16.269 93.718 0.65 8.463 9.761 13.669 17.571 9.115l27.335-17.571z" fill="#ffffff" p-id="2653"></path><path d="M465.79 817.889c-65.734-2.604-119.751-30.59-152.944-80.053-0.65-0.65-1.303-1.303-1.303-1.952-1.303-0.65-1.303-2.604-0.65-3.254 0.65-1.303 2.604-1.952 3.907-0.65 0.65 0.65 1.303 1.303 2.604 3.254 31.89 47.51 84.606 75.498 148.388 77.446 1.303 0 2.604 1.303 2.604 2.604s-1.303 2.604-2.604 2.604z" fill="#ffffff" p-id="2654"></path></svg>