<svg t="1567476284394" class="icon" viewBox="0 0 1024 1024" version="1.1" xmlns="http://www.w3.org/2000/svg" p-id="1386" width="200" height="200"><path d="M747.264 845.952c-4.288 0.256-7.552 0.512-10.816 0.512-132.736 0.064-265.536 0.064-398.272 0.064-11.328 0-11.392-0.064-11.328-11.456 0-9.344 0-18.688 0-28.032 0-7.936 3.264-11.136 11.392-11.136 27.776 0 55.552 0.064 83.264 0 11.584-0.064 12.672-1.344 12.672-12.544 0-9.344 0-18.688 0-28.032C434.048 744.896 431.552 742.4 421.248 742.4c-84.544 0-169.152 0-253.632 0-22.08 0-37.696-9.792-45.696-30.528-2.176-5.632-3.904-11.904-3.904-17.856-0.192-176.96 0-353.856-0.32-530.752 0-20.608 11.072-33.536 26.432-43.776 5.312-3.52 12.8-4.224 19.456-5.12C169.664 113.536 176.064 114.112 182.4 114.112c240.512 0 481.088 0 721.536 0 17.216 0 32.512 4.864 43.2 18.688C954.176 141.824 960.064 150.912 960 164.48c-0.64 175.936-0.448 351.872-0.448 527.808 0 8.64 0 16.32-7.36 23.872-5.184 5.376-8.192 13.696-15.424 17.472-6.656 3.584-14.08 8.128-21.184 8.256-44.16 0.832-88.384 0.512-132.544 0.512-43.136 0.064-86.336 0-129.408 0-10.688 0-10.944 0.256-11.008 11.136-0.064 11.072 0.448 22.208-0.192 33.28-0.448 8.128 3.84 9.216 10.112 9.216 27.328-0.128 54.592-0.064 81.792-0.064 11.84 0 12.992 1.216 12.928 12.864C747.264 820.864 747.264 832.96 747.264 845.952zM170.048 165.12c-0.32 5.376-0.832 9.6-0.832 13.824-0.064 37.632 0 75.2 0 112.832 0 93.632 0 187.264 0 280.96 0 14.016 0 13.952 14.016 13.952 236.992 0 473.984 0 710.912 0 11.328 0 13.632-2.304 13.632-13.568 0-132.032 0-264 0-396.032 0-11.2-0.832-11.968-12.032-11.968-238.72 0-477.504 0-716.288 0C176.704 165.12 173.952 165.12 170.048 165.12zM477.12 364.16C466.176 365.184 456.384 362.752 447.36 356.032 446.08 355.072 442.048 356.096 440.256 357.504 420.224 373.312 400.512 389.376 380.544 405.248 367.936 415.232 354.944 424.832 342.336 434.752c-4.992 3.968-9.792 8.192-3.84 15.168 0.832 0.96 1.024 3.008 0.64 4.352C334.336 470.272 329.856 486.208 312.512 494.144 290.496 504.192 269.76 498.304 254.848 480.064c-8.896-10.88-10.88-23.552-8.256-36.288 2.944-14.528 11.392-26.496 25.728-32.128C279.936 408.704 288.704 408.32 296.96 406.976c1.664-0.256 3.84-0.192 5.184 0.64C314.304 415.36 323.328 411.008 333.056 402.048 344.448 391.488 357.504 382.656 369.856 373.12 388.032 358.976 406.464 345.024 424.32 330.496 427.2 328.128 429.376 323.2 429.312 319.488c-0.384-17.088 7.68-30.528 20.736-38.912 12.352-7.936 27.328-9.92 42.304-3.328 8.128 3.52 14.784 8 19.776 15.296 9.216 13.76 11.84 27.968 4.928 43.904-1.28 2.944 1.984 8.96 4.672 12.288 11.2 13.824 24.064 26.432 33.92 41.024 5.12 7.616 10.368 6.528 16.896 6.976 8.448 0.576 17.472-2.56 25.216 4.224C598.656 401.92 603.264 400.256 605.12 398.656c13.248-12.032 26.24-24.384 39.36-36.672 22.208-20.672 44.288-41.408 66.56-62.08 7.552-6.976 15.552-13.44 22.72-20.8 2.56-2.624 4.288-6.912 4.672-10.624 0.64-5.952-1.024-12.16-0.256-18.112 1.792-13.952 6.912-26.496 20.288-33.28 7.232-3.648 15.232-8.32 22.784-8.192 13.184 0.192 26.24 4.416 35.968 14.464 13.376 13.888 12.864 31.616 9.344 48.128-2.688 12.288-12.8 21.376-25.344 25.6-6.912 2.368-14.528 3.008-21.824 4.288-1.408 0.256-3.392 0.32-4.416-0.448-13.12-9.088-19.84 1.088-27.84 8.704-12.736 12.224-25.984 24-38.976 36.032-18.88 17.6-37.76 35.328-56.576 52.992C642.304 407.424 632.832 416 623.936 425.152 621.696 427.392 620.032 431.744 620.416 434.88 622.464 454.528 615.04 470.656 598.72 480.128 588.096 486.336 575.296 489.856 561.536 483.84 552.064 479.616 543.104 475.84 537.6 466.88 529.344 453.696 525.504 439.936 532.736 424.576c2.24-4.736 2.752-9.792-1.856-15.104C518.912 395.84 508.096 381.184 496.64 367.104 495.104 365.312 492.288 363.968 489.984 363.776 485.76 363.328 481.408 363.968 477.12 364.16zM306.688 452.416C306.56 443.456 301.504 438.976 291.648 439.04c-8.96 0.064-14.336 5.504-14.144 14.4 0.128 8.896 5.952 14.656 14.464 14.592C299.52 467.904 306.752 460.16 306.688 452.416zM784.128 240.768c-9.536-0.064-14.4 4.544-14.528 13.888-0.128 8.96 5.504 15.168 13.696 15.168 7.104 0 15.424-7.808 15.488-14.656C798.912 247.424 792.256 240.832 784.128 240.768zM561.856 440C561.664 450.368 565.248 454.528 574.528 454.656c9.28 0.128 16-5.696 16.128-13.888 0.064-4.928-7.616-15.424-14.848-15.232C566.912 425.728 562.048 430.4 561.856 440zM490.368 319.616c-3.264-11.328-9.28-17.28-21.632-13.44C462.016 308.224 461.76 314.432 460.096 319.104c-1.536 4.544 6.528 13.248 13.44 14.272C484.032 334.976 487.168 326.656 490.368 319.616z" p-id="1387"></path></svg>