<?xml version="1.0" standalone="no"?><!DOCTYPE svg PUBLIC "-//W3C//DTD SVG 1.1//EN" "http://www.w3.org/Graphics/SVG/1.1/DTD/svg11.dtd"><svg t="1563415185284" class="icon" viewBox="0 0 1024 1024" version="1.1" xmlns="http://www.w3.org/2000/svg" p-id="1796" xmlns:xlink="http://www.w3.org/1999/xlink" width="500" height="500"><defs><style type="text/css"></style></defs><path d="M884.363636 581.818182h-139.636363v-23.272727a69.818182 69.818182 0 0 0-69.818182-69.818182h-46.545455a23.272727 23.272727 0 0 1-23.272727-23.272728v-23.272727h46.545455a46.545455 46.545455 0 0 0 46.545454-46.545454V116.363636a46.545455 46.545455 0 0 0-46.545454-46.545454H372.363636a46.545455 46.545455 0 0 0-46.545454 46.545454v279.272728a46.545455 46.545455 0 0 0 46.545454 46.545454h46.545455v23.272727a23.272727 23.272727 0 0 1-23.272727 23.272728h-46.545455a69.818182 69.818182 0 0 0-69.818182 69.818182v23.272727H139.636364a46.545455 46.545455 0 0 0-46.545455 46.545454v279.272728a46.545455 46.545455 0 0 0 46.545455 46.545454h279.272727a46.545455 46.545455 0 0 0 46.545454-46.545454v-139.636364h93.09091v139.636364a46.545455 46.545455 0 0 0 46.545454 46.545454h279.272727a46.545455 46.545455 0 0 0 46.545455-46.545454V628.363636a46.545455 46.545455 0 0 0-46.545455-46.545454z m-186.181818 0h-93.090909a46.545455 46.545455 0 0 0-46.545454 46.545454v93.090909h-93.09091v-93.090909a46.545455 46.545455 0 0 0-46.545454-46.545454h-93.090909v-23.272727a23.272727 23.272727 0 0 1 23.272727-23.272728h46.545455a69.818182 69.818182 0 0 0 69.818181-69.818182v-23.272727h93.09091v23.272727a69.818182 69.818182 0 0 0 69.818181 69.818182h46.545455a23.272727 23.272727 0 0 1 23.272727 23.272728z" fill="#ffffff" p-id="1797"></path></svg>