<?xml version="1.0" standalone="no"?><!DOCTYPE svg PUBLIC "-//W3C//DTD SVG 1.1//EN" "http://www.w3.org/Graphics/SVG/1.1/DTD/svg11.dtd"><svg t="1563416416788" class="icon" viewBox="0 0 1024 1024" version="1.1" xmlns="http://www.w3.org/2000/svg" p-id="9373" xmlns:xlink="http://www.w3.org/1999/xlink" width="500" height="500"><defs><style type="text/css"></style></defs><path d="M883.9 580.8c-17.6-0.1-31.9-14.4-32-32-0.1-17.6 1.3-27.9 1.3-36.7 0.2-159.7-104-300.8-256.7-347.6-152.7-46.8-318.1 11.6-407.4 144-89.4 132.4-81.7 307.6 18.8 431.7s270.3 168 418.4 108.1c4.2-1.2 8.5-2 12.9-2.1 17.7 0 32 14.3 32 32-0.7 13.9-9.9 25.9-23.1 30.2-174 69.1-372.8 16.6-490-129.5C40.8 632.8 32.7 427.3 137.9 272.3S437.1 49.2 616.2 104.2c179 55.1 301.2 220.5 301.1 407.8-0.1 6.3 7.5 68.8-33.4 68.8z m-233.3-90h-128v64h85.3c17.7 0 32 14.3 32 32s-14.3 32-32 32h-85.3v74.7c0 17.7-14.3 32-32 32s-32-14.3-32-32v-74.7h-85.3c-17.7 0-32-14.3-32-32s14.3-32 32-32h85.3v-64h-128c-17.7 0-32-14.3-32-32s14.3-32 32-32h95.2l-35.6-61.7c-7.2-12.7-2.8-28.9 9.8-36.3 12.7-7.3 28.9-3 36.3 9.6l37.3 64.7c4.1 7.3 4.5 16.1 1 23.7h42.5c-3.5-7.6-3.1-16.4 1-23.7l37.3-64.7c7.4-12.6 23.6-16.9 36.3-9.6 12.7 7.3 17.1 23.5 9.8 36.3L566 426.8h84.5c17.7 0 32 14.3 32 32 0.1 17.6-14.3 32-31.9 32z m0 0" p-id="9374" fill="#ffffff"></path><path d="M951.7 779L864 866.6c-10.4 10.4-27.3 10.4-37.7 0-10.4-10.4-10.4-27.3 0-37.7l39.5-39.5H650.6c-17.7 0-32-14.3-32-32s14.3-32 32-32h215.6l-39.6-39.7c-7.1-6.7-10-16.6-7.5-26.1 2.4-9.4 9.8-16.8 19.2-19.2 9.4-2.4 19.4 0.5 26.1 7.5l87.7 87.7c3.6 6.9 6.2 14.1 8 21.7-1.6 7.7-4.4 15-8.4 21.7z m0 0" p-id="9375" fill="#ffffff"></path></svg>