<?xml version="1.0" standalone="no"?><!DOCTYPE svg PUBLIC "-//W3C//DTD SVG 1.1//EN" "http://www.w3.org/Graphics/SVG/1.1/DTD/svg11.dtd"><svg t="1563416330113" class="icon" viewBox="0 0 1024 1024" version="1.1" xmlns="http://www.w3.org/2000/svg" p-id="7955" xmlns:xlink="http://www.w3.org/1999/xlink" width="500" height="500"><defs><style type="text/css"></style></defs><path d="M631.80571 526.070395l-166.396152 147.836581-71.038357-88.317958a31.99926 31.99926 0 1 0-49.918845 39.679083l91.517883 114.557351a31.99926 31.99926 0 0 0 22.399482 12.159718 31.99926 31.99926 0 0 0 21.119512-8.319807L674.044734 575.98924a31.99926 31.99926 0 0 0-42.239024-47.99889z" p-id="7956" fill="#ffffff"></path><path d="M819.321374 71.040917h-127.99704L670.204823 18.562131A31.99926 31.99926 0 0 0 641.405488 0.00256H380.931512a31.99926 31.99926 0 0 0-29.439319 18.559571l-23.679453 51.838801h-127.99704A91.517884 91.517884 0 0 0 110.217772 159.99886v773.742107A91.517884 91.517884 0 0 0 203.655611 1023.97888h615.665763a91.517884 91.517884 0 0 0 93.437839-88.957942V159.99886a91.517884 91.517884 0 0 0-93.437839-88.957943zM401.411038 64.00108H622.205932l47.358905 104.317588H354.052134z m447.989641 869.739887a27.519364 27.519364 0 0 1-29.43932 24.959423H203.655611a27.519364 27.519364 0 0 1-29.439319-24.959423V159.99886a27.519364 27.519364 0 0 1 29.439319-25.599408H302.213332l-23.679452 52.478786a31.99926 31.99926 0 0 0 23.679452 45.43895h415.350395a31.99926 31.99926 0 0 0 29.43932-45.43895l-23.679453-52.478786h95.99778a27.519364 27.519364 0 0 1 29.439319 25.599408z" p-id="7957" fill="#ffffff"></path></svg>