<?xml version="1.0" standalone="no"?><!DOCTYPE svg PUBLIC "-//W3C//DTD SVG 1.1//EN" "http://www.w3.org/Graphics/SVG/1.1/DTD/svg11.dtd"><svg t="1563417247259" class="icon" viewBox="0 0 1024 1024" version="1.1" xmlns="http://www.w3.org/2000/svg" p-id="16470" xmlns:xlink="http://www.w3.org/1999/xlink" width="500" height="500"><defs><style type="text/css"></style></defs><path d="M554.666667 768v85.333333h170.666666a42.666667 42.666667 0 1 1 0 85.333334h-426.666666a42.666667 42.666667 0 1 1 0-85.333334h170.666666V768H85.333333a85.333333 85.333333 0 0 1-85.333333-85.333333V170.666667a85.333333 85.333333 0 0 1 85.333333-85.333334h853.333334a85.333333 85.333333 0 0 1 85.333333 85.333334v512a85.333333 85.333333 0 0 1-85.333333 85.333333H554.666667z m0-85.333333H938.666667V170.666667H85.333333v512h469.333334z m-268.458667-55.125334l-60.416-60.416 192.426667-192.341333 170.666666 85.333333 234.24-234.325333 60.416 60.416-277.76 277.674667-170.666666-85.333334-148.906667 148.992z" p-id="16471" fill="#ffffff"></path></svg>