<?xml version="1.0" standalone="no"?><!DOCTYPE svg PUBLIC "-//W3C//DTD SVG 1.1//EN" "http://www.w3.org/Graphics/SVG/1.1/DTD/svg11.dtd"><svg t="1563417344149" class="icon" viewBox="0 0 1024 1024" version="1.1" xmlns="http://www.w3.org/2000/svg" p-id="18601" xmlns:xlink="http://www.w3.org/1999/xlink" width="500" height="500"><defs><style type="text/css"></style></defs><path d="M312.8 334.8c0 10.3-8.6 18.8-18.8 18.8h-1.1c-9.7 0-18.8-8.6-18.8-18.8v-59.9c0-10.8 9.1-18.8 18.8-18.8h1.1c10.3 0 18.8 8 18.8 18.8v59.9z m33.1 428.5c-10.3 0-19.4-1.7-28-5.7-17.1-7.4-30.2-20.5-38.2-37.7-3.4-8.6-5.7-17.7-5.7-27.4V408.4c0-9.7 9.1-18.8 18.8-18.8h1.1c10.3 0 18.8 9.1 18.8 18.8v284.1c0 8.6 2.9 16.5 9.7 22.8 6.3 6.3 14.3 9.7 23.4 9.7h377.7c10.3 0 18.8 8.6 18.8 18.8v0.6c0 10.8-8.6 18.8-18.8 18.8H345.9zM379 330.8c0.6-9.7 2.9-18.3 6.3-26.8 11.4-25.1 34.8-41.7 63.3-41.7h279.6c10.3 0 18.8 8 18.8 18.8v0.6c0 10.3-8.6 18.8-18.8 18.8H448.6c-8 0-14.8 2.9-21.1 9.7-6.3 6.3-9.1 13.7-10.3 22.3l-2.9 43.4h286.4c14.3 0 23.4 14.8 17.7 27.4-27.4 58.8-63.3 111.8-107.3 157.5l113.5 87.9c8 6.3 9.7 18.3 2.9 26.2l-0.6 0.6c-6.3 8-17.7 9.7-26.2 3.4l-117.5-90.7c-39.4 35.9-83.9 67.3-132.4 91.9-9.7 4.6-21.1 0.6-25.7-8.6l-0.6-0.6c-4.6-9.1-0.6-21.1 8-25.1 42.2-21.7 83.3-49.6 119.8-81.6l-114.7-89.6c-8.6-6.8-9.7-18.8-3.4-27.4l1.1-0.6c6.3-8 17.7-9.1 26.2-2.9l119.2 93C617.2 499 647.5 458 668 414.6H412.1l-14.8 260.7c-0.6 10.8-9.1 18.3-20 17.7h-0.6c-10.3 0-18.3-9.1-17.7-19.4l20-342.8z" fill="#ffffff" p-id="18602"></path><path d="M99.9 337.5c22.5-53.2 54.7-100.9 95.7-141.9s88.8-73.2 141.9-95.7c55-23.3 113.5-35.1 173.8-35.1s118.8 11.8 173.8 35.1c53.2 22.5 100.9 54.7 141.9 95.7 13.7 13.7 26.5 28.3 38.2 43.5 4.7 9.5 14.5 16 25.9 16 16 0 28.9-12.9 28.9-28.9 0-8.1-3.3-15.3-8.6-20.6-13.5-17.6-28.2-34.4-44.1-50.3-46.1-46.3-100-82.6-160-107.9-62.1-26.3-128-39.6-196-39.6s-133.9 13.3-196 39.6c-60 25.4-113.8 61.7-160.1 107.9-46.2 46.2-82.5 100.1-107.8 160-26.3 62.1-39.6 128-39.6 196v2.2c0.4 15.4 13.1 27.8 28.6 27.8 15.8 0 28.6-12.8 28.6-28.6 0-1.2-0.1-2.4-0.2-3.6 0.3-59.5 12.1-117.2 35.1-171.6zM1015 512.7c0-15.8-12.8-28.6-28.6-28.6s-28.6 12.8-28.6 28.6c0 0.8 0 1.5 0.1 2.3-0.5 59-12.3 116.2-35.1 170.1-22.5 53.2-54.7 100.9-95.7 141.9s-88.8 73.2-141.9 95.7c-55 23.3-113.5 35.1-173.8 35.1S392.6 946 337.6 922.7C284.4 900.2 236.7 868 195.7 827c-15-15-28.9-31-41.5-47.8-4.6-10-14.6-16.9-26.3-16.9-16 0-28.9 12.9-28.9 28.9 0 7.6 2.9 14.5 7.8 19.7 14.7 19.9 30.9 38.7 48.6 56.4 46.2 46.2 100.1 82.5 160.1 107.9 62.1 26.3 128 39.6 196 39.6s133.9-13.3 196-39.6c60-25.4 113.8-61.7 160.1-107.9 46.2-46.2 82.5-100.1 107.9-160.1 25.7-60.8 39-125.2 39.6-191.7-0.2-0.8-0.1-1.8-0.1-2.8z" fill="#ffffff" p-id="18603"></path><path d="M16.2 532.2c-10.6-11.5-9.9-29.6 1.6-40.3l111.1-102.5c11.5-10.6 29.6-9.9 40.3 1.6 10.6 11.5 9.9 29.6-1.6 40.3L56.5 533.8c-11.5 10.6-29.7 9.9-40.3-1.6zM853.9 634.6c-10.6-11.5-9.9-29.6 1.6-40.3l111.1-102.5c11.5-10.6 29.6-9.9 40.3 1.6 10.6 11.5 9.9 29.6-1.6 40.3L894.1 636.2c-11.5 10.6-29.6 9.9-40.2-1.6z" fill="#ffffff" p-id="18604"></path></svg>