<?xml version="1.0" standalone="no"?><!DOCTYPE svg PUBLIC "-//W3C//DTD SVG 1.1//EN" "http://www.w3.org/Graphics/SVG/1.1/DTD/svg11.dtd"><svg t="1563417316001" class="icon" viewBox="0 0 1024 1024" version="1.1" xmlns="http://www.w3.org/2000/svg" p-id="17215" xmlns:xlink="http://www.w3.org/1999/xlink" width="500" height="500"><defs><style type="text/css"></style></defs><path d="M647.706947 1024H376.346947v-96.633263h271.36V1024z m77.446737-329.368702v0.10779a191.128702 191.128702 0 0 0-77.518596 154.641965v39.343158h-116.232983V460.027509a77.518596 77.518596 0 1 0-38.76828 0V888.724211h-116.286878v-39.325193a200.380632 200.380632 0 0 0-73.117193-151.390316l-5.856561-4.563088A384.449123 384.449123 0 0 1 143.719298 386.11986C143.719298 172.894316 297.894175 0 512 0S880.280702 172.894316 880.280702 386.11986a384.449123 384.449123 0 0 1-155.162948 308.511438z m0 0" fill="#868686" p-id="17216"></path></svg>